<svg width="16" height="22" viewBox="0 0 16 22" fill="none" xmlns="http://www.w3.org/2000/svg">
<path fill-rule="evenodd" clip-rule="evenodd" d="M2.80606 21.1584H13.1916C14.7348 21.1584 15.9977 19.9186 15.9977 18.4037V6.16629L9.98499 0.0020752H2.80606C1.26292 0.0020752 0 1.24189 0 2.75679V18.4037C0 19.9186 1.26292 21.1584 2.80606 21.1584Z" fill="#0263D1"/>
<path fill-rule="evenodd" clip-rule="evenodd" d="M15.9977 6.16421L9.98499 0V6.19327H15.9977V6.16421Z" fill="#4E92DF"/>
<path d="M3.6467 12.1541H5.05367C5.50162 12.1541 5.83314 12.2704 6.05217 12.5028C6.27121 12.7353 6.37975 13.0763 6.37975 13.5276V16.3385C6.37975 16.788 6.27121 17.1308 6.05217 17.3633C5.83314 17.5958 5.50162 17.712 5.05367 17.712H3.6467V12.1541ZM4.53666 12.9484V16.9177H5.03789C5.17799 16.9177 5.2885 16.879 5.36941 16.7996C5.45031 16.7201 5.48978 16.5807 5.48978 16.3792V13.4889C5.48978 13.2874 5.44834 13.1479 5.36941 13.0685C5.2885 12.9891 5.17799 12.9503 5.03789 12.9503H4.53666V12.9484ZM7.76304 16.4334C7.76304 16.6349 7.80448 16.7763 7.88933 16.8577C7.97221 16.9391 8.08469 16.9817 8.2248 16.9817C8.3649 16.9817 8.47738 16.941 8.56026 16.8577C8.64314 16.7763 8.68655 16.6349 8.68655 16.4334V13.4327C8.68655 13.2312 8.64511 13.0898 8.56026 13.0084C8.47738 12.9271 8.3649 12.8845 8.2248 12.8845C8.08469 12.8845 7.97221 12.9251 7.88933 13.0084C7.80645 13.0898 7.76304 13.2312 7.76304 13.4327V16.4334ZM6.87307 13.4869C6.87307 13.0375 6.9895 12.6907 7.22038 12.4505C7.45323 12.2103 7.78672 12.0902 8.22282 12.0902C8.65893 12.0902 8.99439 12.2103 9.22527 12.4505C9.45812 12.6907 9.57257 13.0375 9.57257 13.4869V16.3773C9.57257 16.8267 9.45615 17.1735 9.22527 17.4137C8.99242 17.6539 8.65893 17.774 8.22282 17.774C7.78672 17.774 7.45126 17.6539 7.22038 17.4137C6.98753 17.1735 6.87307 16.8267 6.87307 16.3773V13.4869ZM12.7279 15.6392V16.3773C12.7279 16.8267 12.6154 17.1735 12.3924 17.4137C12.1695 17.6539 11.8379 17.774 11.4018 17.774C10.9657 17.774 10.6342 17.6539 10.4112 17.4137C10.1882 17.1735 10.0758 16.8267 10.0758 16.3773V13.4869C10.0758 13.0375 10.1882 12.6907 10.4112 12.4505C10.6342 12.2103 10.9657 12.0902 11.4018 12.0902C11.8379 12.0902 12.1695 12.2103 12.3924 12.4505C12.6154 12.6907 12.7279 13.0375 12.7279 13.4869V14.0274H11.8873V13.4327C11.8873 13.2312 11.8458 13.0898 11.761 13.0084C11.6781 12.9271 11.5656 12.8845 11.4255 12.8845C11.2854 12.8845 11.1729 12.9251 11.0901 13.0084C11.0072 13.0898 10.9638 13.2312 10.9638 13.4327V16.4334C10.9638 16.6349 11.0052 16.7744 11.0901 16.8538C11.1729 16.9332 11.2854 16.972 11.4255 16.972C11.5656 16.972 11.6781 16.9313 11.761 16.8538C11.8439 16.7744 11.8873 16.6349 11.8873 16.4334V15.6392H12.7279Z" fill="#FEFEFE"/>
</svg>
