<svg width="27" height="21" viewBox="0 0 27 21" fill="none" xmlns="http://www.w3.org/2000/svg">
<path d="M22.9291 0H3.57334C2.21649 0 1.11655 1.09124 1.11655 2.43736V12.8751C1.11655 14.2212 2.21649 15.3124 3.57334 15.3124H22.9291C24.2859 15.3124 25.3859 14.2212 25.3859 12.8751V2.43736C25.3859 1.09124 24.2859 0 22.9291 0Z" fill="#FFA000"/>
<rect x="3" y="2" width="20" height="15" fill="#FAFAFA"/>
<path fill-rule="evenodd" clip-rule="evenodd" d="M24.0651 5.68759H10.4769C9.9863 5.68759 9.56831 5.36045 9.43003 4.91361C9.43117 4.93532 9.43203 4.95704 9.4326 4.97875C9.39289 3.44765 8.12806 2.2074 6.58782 2.2074H2.84564C1.28054 2.2074 0 3.48793 0 5.05303V8.12466V14.6742V18.5627C0 19.9032 1.09683 21 2.43736 21H24.0651C25.4056 21 26.5024 19.9032 26.5024 18.5627V8.12466C26.5024 6.78413 25.4056 5.6873 24.0651 5.6873V5.68759ZM9.43346 5.05332C9.43346 5.02932 9.43317 5.00504 9.4326 4.98104C9.43317 5.00504 9.43346 5.02903 9.43346 5.05332Z" fill="#FFC107"/>
</svg>
