<svg width="16" height="22" viewBox="0 0 16 22" fill="none" xmlns="http://www.w3.org/2000/svg">
<path fill-rule="evenodd" clip-rule="evenodd" d="M2.80599 21.1591H13.1913C14.7344 21.1591 15.9973 19.9193 15.9973 18.4044V6.16702L9.98476 0.00280762H2.80599C1.26289 0.00280762 0 1.24262 0 2.75752V18.4044C0 19.9193 1.26289 21.1591 2.80599 21.1591Z" fill="#0AC963"/>
<path fill-rule="evenodd" clip-rule="evenodd" d="M15.9973 6.1647L9.98476 0.000488281V6.19376H15.9973V6.1647Z" fill="#54D992"/>
<path fill-rule="evenodd" clip-rule="evenodd" d="M4.05113 11.2247H12.0547C12.5599 11.2247 12.9723 11.6296 12.9723 12.1255V17.3056C12.9723 17.8016 12.5599 18.2064 12.0547 18.2064H4.05113C3.54597 18.2064 3.13356 17.8016 3.13356 17.3056V12.1255C3.13356 11.6296 3.54597 11.2247 4.05113 11.2247ZM6.32631 12.5188C6.97749 12.5188 7.50436 13.036 7.50436 13.6753C7.50436 14.3146 6.97749 14.8318 6.32631 14.8318C5.67514 14.8318 5.14827 14.3146 5.14827 13.6753C5.14827 13.036 5.67514 12.5188 6.32631 12.5188ZM4.08073 17.3192H12.2757V16.1704L9.80125 13.9291L6.83739 16.8388L5.29627 15.5583L3.83013 16.8097V17.3192H4.0827H4.08073Z" fill="#FEFEFE"/>
</svg>
