<svg width="16" height="22" viewBox="0 0 16 22" fill="none" xmlns="http://www.w3.org/2000/svg">
<path fill-rule="evenodd" clip-rule="evenodd" d="M2.80819 21.1579H13.1918C14.7355 21.1579 15.9977 19.9188 15.9977 18.4033V6.1661L9.98443 0.00219727H2.80588C1.26219 0.00219727 0 1.24132 0 2.75681V18.4033C0 19.9188 1.26219 21.1579 2.80588 21.1579H2.80819Z" fill="#9900CC"/>
<path fill-rule="evenodd" clip-rule="evenodd" d="M16 6.16391L9.98672 0V6.19336H16V6.16391Z" fill="#B84DDB"/>
<path fill-rule="evenodd" clip-rule="evenodd" d="M7.3793 15.1119C6.93857 14.951 6.7009 14.7879 6.05712 14.9193C5.07875 15.1187 4.61033 16.0384 5.16874 16.7316C5.83098 17.5516 7.45083 17.4361 7.89386 16.505C8.00462 16.2717 7.99539 16.061 7.99539 15.7869C7.99539 14.7404 7.95386 13.6122 8.00001 12.577C8.53303 12.7152 9.03606 13.2339 9.2645 13.721C9.59908 14.4323 9.20912 14.2443 9.22758 14.5886C9.23912 14.797 9.55293 15.1005 9.88982 14.6067C10.4159 13.8297 10.7021 12.7945 10.1713 11.8838C9.99366 11.5803 9.82291 11.4421 9.5737 11.2473C9.1399 10.9097 8.26306 10.4544 8.02308 9.80198C7.95155 9.6117 7.96539 9.4939 7.74849 9.45992C7.287 9.3897 7.38622 9.98547 7.38622 10.3094C7.38622 11.1045 7.38622 11.8997 7.38622 12.6948C7.38622 13.4876 7.4116 14.3235 7.38391 15.1096L7.3793 15.1119Z" fill="#FEFEFE"/>
</svg>
