<svg width="16" height="22" viewBox="0 0 16 22" fill="none" xmlns="http://www.w3.org/2000/svg">
<path fill-rule="evenodd" clip-rule="evenodd" d="M2.80455 21.158H13.1908C14.7348 21.158 15.9977 19.9184 15.9977 18.4028V6.16524L9.98531 0.0012207H2.80686C1.26285 0.0012207 0 1.24081 0 2.75637V18.4028C0 19.9184 1.26285 21.158 2.80686 21.158H2.80455Z" fill="#E5252A"/>
<path fill-rule="evenodd" clip-rule="evenodd" d="M15.9978 6.16524L9.98308 0.0012207V6.19465H15.9978V6.16524Z" fill="#ED676A"/>
<path d="M4.95702 12.1551C5.40409 12.1551 5.73823 12.2705 5.95486 12.5034C6.17378 12.7364 6.28209 13.078 6.28209 13.5281V14.2497C6.28209 14.6999 6.17378 15.0414 5.95486 15.2744C5.73593 15.5074 5.40409 15.6228 4.95702 15.6228H4.5353V17.7106H3.64577V12.1528H4.95702V12.1551ZM4.5353 12.9491V14.8311H4.95702C5.09759 14.8311 5.2059 14.7949 5.27964 14.7202C5.35569 14.6456 5.39256 14.5076 5.39256 14.3063V13.4716C5.39256 13.2703 5.35569 13.1323 5.27964 13.0576C5.2036 12.983 5.09528 12.9468 4.95702 12.9468H4.5353V12.9491ZM6.69459 12.1551H8.10263C8.5497 12.1551 8.88385 12.2705 9.10277 12.5034C9.3217 12.7364 9.43001 13.078 9.43001 13.5281V16.3398C9.43001 16.79 9.3217 17.1316 9.10277 17.3645C8.88385 17.5975 8.552 17.7129 8.10263 17.7129H6.69459V12.1551ZM7.58412 12.9491V16.9189H8.0865C8.22707 16.9189 8.33769 16.8782 8.41834 16.799C8.499 16.7199 8.54048 16.5796 8.54048 16.3783V13.4874C8.54048 13.2861 8.499 13.1459 8.41834 13.0667C8.33769 12.9875 8.22707 12.9468 8.0865 12.9468H7.58412V12.9491ZM10.8841 14.6252H12.0318V15.4192H10.8841V17.7129H9.99461V12.1551H12.3475V12.9491H10.8841V14.6252Z" fill="#FEFEFE"/>
</svg>
