<svg width="16" height="22" viewBox="0 0 16 22" fill="none" xmlns="http://www.w3.org/2000/svg">
<path fill-rule="evenodd" clip-rule="evenodd" d="M2.8065 21.1581H13.1912C14.7349 21.1581 15.9977 19.9184 15.9977 18.4029V6.16476L9.98447 0H2.8065C1.26276 0 0 1.23969 0 2.75522V18.4029C0 19.9184 1.26276 21.1581 2.8065 21.1581Z" fill="#E03303"/>
<path fill-rule="evenodd" clip-rule="evenodd" d="M15.9977 6.16476L9.9861 0V6.19363H15.9977V6.16476Z" fill="#E9714F"/>
<path fill-rule="evenodd" clip-rule="evenodd" d="M7.51286 13.9205H11.11C11.11 15.8706 9.4993 17.4519 7.51286 17.4519C5.52643 17.4519 3.91571 15.8706 3.91571 13.9205C3.91571 11.9703 5.52643 10.389 7.51286 10.389V13.9205Z" fill="#FEFEFE"/>
<path fill-rule="evenodd" clip-rule="evenodd" d="M8.04378 13.4122V9.88074C10.0302 9.88074 11.6409 11.462 11.6409 13.4122H8.04378Z" fill="#FEFEFE"/>
</svg>
