<svg width="16" height="22" viewBox="0 0 16 22" fill="none" xmlns="http://www.w3.org/2000/svg">
<path fill-rule="evenodd" clip-rule="evenodd" d="M2.8065 21.1586H13.1912C14.7349 21.1586 15.9977 19.9189 15.9977 18.4034V6.16525L9.98447 0.000488281H2.8065C1.26276 0.000488281 0 1.24018 0 2.75571V18.4034C0 19.9189 1.26276 21.1586 2.8065 21.1586Z" fill="#FFB11F"/>
<path fill-rule="evenodd" clip-rule="evenodd" d="M15.9977 6.16525L9.9861 0.000488281V6.19412H15.9977V6.16525Z" fill="#FFC963"/>
<path fill-rule="evenodd" clip-rule="evenodd" d="M1.85574 1.66052H3.71966V2.5955H1.85574V1.66052Z" fill="#FEFEFE"/>
<path fill-rule="evenodd" clip-rule="evenodd" d="M3.21979 2.59058H5.08371V3.52395H3.21979V2.59058Z" fill="#FEFEFE"/>
<path fill-rule="evenodd" clip-rule="evenodd" d="M1.85574 3.52405H3.71966V4.45903H1.85574V3.52405Z" fill="#FEFEFE"/>
<path fill-rule="evenodd" clip-rule="evenodd" d="M3.21979 4.4541H5.08371V5.38748H3.21979V4.4541Z" fill="#FEFEFE"/>
<path fill-rule="evenodd" clip-rule="evenodd" d="M1.85574 5.38757H3.71966V6.32255H1.85574V5.38757Z" fill="#FEFEFE"/>
<path fill-rule="evenodd" clip-rule="evenodd" d="M3.21979 6.31775H5.08371V7.25112H3.21979V6.31775Z" fill="#FEFEFE"/>
<path fill-rule="evenodd" clip-rule="evenodd" d="M3.84219 9.65503C4.27836 9.83625 4.58547 10.2612 4.58547 10.7552C4.58547 11.4143 4.04149 11.95 3.36845 11.95C2.69705 11.95 2.15143 11.4159 2.15143 10.7552C2.15143 10.2628 2.45528 9.83946 2.88981 9.65664V7.7113H3.84056V9.65503H3.84219ZM3.36845 10.0608C3.75888 10.0608 4.07579 10.3719 4.07579 10.7552C4.07579 11.1385 3.75888 11.4496 3.36845 11.4496C2.97802 11.4496 2.66111 11.1385 2.66111 10.7552C2.66111 10.3719 2.97802 10.0608 3.36845 10.0608Z" fill="#FEFEFE"/>
<path d="M5.1311 18.4418C5.11966 18.405 5.10986 18.3697 5.09843 18.3392C5.08699 18.3071 5.07883 18.267 5.07066 18.2205C5.06249 18.1724 5.05759 18.1115 5.05432 18.0377C5.05105 17.9639 5.04942 17.8709 5.04942 17.7603V16.8862C5.04942 16.6264 5.00368 16.4436 4.9122 16.3377C4.82072 16.2319 4.67206 16.179 4.46786 16.179H4.16075V18.4418H3.27045V12.8833H4.61325C5.07719 12.8833 5.41208 12.9891 5.61954 13.2008C5.82701 13.4125 5.93156 13.7333 5.93156 14.1615V14.5977C5.93156 15.1702 5.73716 15.5455 5.35 15.7251C5.57707 15.8149 5.73226 15.9625 5.81557 16.1661C5.89888 16.3698 5.94136 16.6168 5.94136 16.9087V17.7667C5.94136 17.9046 5.94626 18.0249 5.95769 18.1275C5.96913 18.2302 5.99527 18.336 6.03774 18.4418H5.13273H5.1311ZM4.16075 13.6771V15.3851H4.5087C4.67533 15.3851 4.80602 15.3434 4.90076 15.2584C4.99551 15.1734 5.04289 15.0195 5.04289 14.7982V14.2497C5.04289 14.0492 5.00695 13.9033 4.93344 13.8135C4.85992 13.7237 4.74557 13.6788 4.59038 13.6788H4.16238L4.16075 13.6771ZM9.40129 18.4418H8.50282L8.34926 17.4331H7.25803L7.10447 18.4418H6.28768L7.19432 12.8833H8.49628L9.40129 18.4418ZM7.37074 16.6793H8.22838L7.80038 13.868L7.37238 16.6793H7.37074ZM11.6736 18.4418C11.6622 18.405 11.6524 18.3697 11.6409 18.3392C11.6295 18.3071 11.6213 18.267 11.6132 18.2205C11.605 18.1724 11.6001 18.1115 11.5968 18.0377C11.5936 17.9639 11.5919 17.8709 11.5919 17.7603V16.8862C11.5919 16.6264 11.5462 16.4436 11.4547 16.3377C11.3632 16.2319 11.2146 16.179 11.0104 16.179H10.7033V18.4418H9.81295V12.8833H11.1558C11.6197 12.8833 11.9546 12.9891 12.162 13.2008C12.3695 13.4125 12.4741 13.7333 12.4741 14.1615V14.5977C12.4741 15.1702 12.2797 15.5455 11.8925 15.7251C12.1196 15.8149 12.2748 15.9625 12.3581 16.1661C12.4414 16.3698 12.4839 16.6168 12.4839 16.9087V17.7667C12.4839 17.9046 12.4888 18.0249 12.5002 18.1275C12.5116 18.2302 12.5378 18.336 12.5802 18.4418H11.6752H11.6736ZM10.7033 13.6771V15.3851H11.0512C11.2178 15.3851 11.3485 15.3434 11.4433 15.2584C11.538 15.1734 11.5854 15.0195 11.5854 14.7982V14.2497C11.5854 14.0492 11.5495 13.9033 11.4759 13.8135C11.4024 13.7237 11.2881 13.6788 11.1329 13.6788H10.7049L10.7033 13.6771Z" fill="#FEFEFE"/>
</svg>
