<svg width="16" height="22" viewBox="0 0 16 22" fill="none" xmlns="http://www.w3.org/2000/svg">
<path fill-rule="evenodd" clip-rule="evenodd" d="M2.80766 21.1588H13.1899C14.7338 21.1588 15.9949 19.9179 15.9949 18.4045V6.16782L9.98331 0.00317383H2.80496C1.26097 0.00317383 -9.15527e-05 1.24404 -9.15527e-05 2.75742V18.4045C-9.15527e-05 19.9205 1.26366 21.1588 2.80496 21.1588H2.80766Z" fill="#092F41"/>
<path fill-rule="evenodd" clip-rule="evenodd" d="M15.9976 6.16514L9.98601 0.000488281V6.19424H15.9976V6.16514Z" fill="#536E7A"/>
<path d="M3.40585 12.1525H6.15432V12.9462H5.22469V17.7112H4.33548V12.9462H3.40585V12.1525ZM9.52793 12.1525L8.5983 14.8512L9.5926 17.7086H8.65489L7.92735 15.51L7.19173 17.7086H6.35911L7.35341 14.8512L6.42378 12.1525H7.34532L8.01627 14.2003L8.70339 12.1525H9.52793ZM9.79469 12.1525H12.5432V12.9462H11.6135V17.7112H10.7243V12.9462H9.79469V12.1525Z" fill="#FEFEFE"/>
</svg>
