<svg width="16" height="22" viewBox="0 0 16 22" fill="none" xmlns="http://www.w3.org/2000/svg">
<path fill-rule="evenodd" clip-rule="evenodd" d="M2.80614 21.1582H13.1916C14.7363 21.1582 15.9977 19.9172 15.9977 18.4034V6.16658L9.98453 0.000976562H2.80614C1.26143 0.000976562 0 1.24197 0 2.75582V18.4034C0 19.9198 1.2641 21.1582 2.80614 21.1582Z" fill="#FA0000"/>
<path fill-rule="evenodd" clip-rule="evenodd" d="M15.9977 6.16658L9.98453 0.000976562V6.19282H15.9977V6.16658Z" fill="#FC4D4D"/>
<path fill-rule="evenodd" clip-rule="evenodd" d="M4.28404 11.5635H9.59434C9.91771 11.5635 10.1823 11.8232 10.1823 12.1407V13.6939L12.4833 12.3322V16.6822L10.1823 15.5541V17.1886C10.1823 17.5061 9.91771 17.7658 9.59434 17.7658H4.28404C3.96067 17.7658 3.69609 17.5061 3.69609 17.1886V12.1433C3.69609 11.8258 3.96067 11.5661 4.28404 11.5661V11.5635ZM6.91113 13.3922C7.61668 13.3922 8.19127 13.9536 8.19127 14.6489C8.19127 15.3416 7.61935 15.903 6.91113 15.903C6.20559 15.903 5.63367 15.3416 5.63367 14.6489C5.63367 13.9563 6.20559 13.3922 6.91113 13.3922Z" fill="#FEFEFE"/>
</svg>
