<svg width="16" height="22" viewBox="0 0 16 22" fill="none" xmlns="http://www.w3.org/2000/svg">
<path fill-rule="evenodd" clip-rule="evenodd" d="M2.80687 21.1583H13.1908C14.7342 21.1583 15.9977 19.9179 15.9977 18.4027V6.16458L9.98535 0H2.80687C1.26346 0 0 1.24038 0 2.75559V18.4027C0 19.9179 1.26346 21.1583 2.80687 21.1583Z" fill="#00733B"/>
<path fill-rule="evenodd" clip-rule="evenodd" d="M15.9977 6.16543L9.98442 0.000854492V6.19364H15.9977V6.16543Z" fill="#4D9D76"/>
<path d="M6.6158 12.1544L5.68605 14.8545L6.68069 17.7129H5.74259L5.01492 15.5133L4.27891 17.7129H3.44556L4.4402 14.8545L3.51044 12.1544H4.43278L5.10391 14.2029L5.79172 12.1544H6.61673H6.6158ZM7.12564 12.1544H8.01553V16.9184H9.47922V17.7129H7.12564V12.1544ZM9.77029 13.4885C9.77029 13.039 9.87967 12.6931 10.0975 12.452C10.3163 12.2108 10.6435 12.0907 11.0801 12.0907C11.5167 12.0907 11.8449 12.2108 12.0627 12.452C12.2815 12.6931 12.3899 13.038 12.3899 13.4885V13.7033H11.5492V13.433C11.5492 13.2319 11.5102 13.0899 11.4324 13.008C11.3545 12.9261 11.2451 12.8852 11.1051 12.8852C10.9652 12.8852 10.8558 12.9261 10.7779 13.008C10.7 13.0899 10.6602 13.2319 10.6602 13.433C10.6602 13.6232 10.7038 13.7916 10.79 13.9372C10.8762 14.0828 10.9837 14.2202 11.1135 14.3503C11.2432 14.4804 11.3814 14.6097 11.5297 14.7389C11.678 14.869 11.817 15.0101 11.9459 15.1639C12.0757 15.3177 12.1832 15.4924 12.2694 15.6881C12.3556 15.8837 12.3992 16.114 12.3992 16.3788C12.3992 16.8283 12.287 17.1742 12.0636 17.4153C11.8402 17.6565 11.5093 17.7766 11.0727 17.7766C10.6361 17.7766 10.3061 17.6565 10.0818 17.4153C9.85835 17.1742 9.74619 16.8293 9.74619 16.3788V15.9975H10.587V16.4343C10.587 16.6354 10.6287 16.7756 10.7121 16.8547C10.7955 16.9339 10.9077 16.9739 11.0477 16.9739C11.1876 16.9739 11.2998 16.9339 11.3832 16.8547C11.4667 16.7756 11.5084 16.6354 11.5084 16.4343C11.5084 16.2432 11.4648 16.0757 11.3786 15.9301C11.2924 15.7845 11.1849 15.6471 11.0551 15.517C10.9253 15.3878 10.7872 15.2576 10.6389 15.1284C10.4905 14.9983 10.3515 14.8572 10.2227 14.7034C10.0929 14.5496 9.98535 14.3749 9.89914 14.1792C9.81293 13.9836 9.76936 13.7533 9.76936 13.4885H9.77029Z" fill="#FEFEFE"/>
</svg>
