<svg width="16" height="22" viewBox="0 0 16 22" fill="none" xmlns="http://www.w3.org/2000/svg">
<path fill-rule="evenodd" clip-rule="evenodd" d="M2.80793 21.1585H13.1898C14.7334 21.1585 15.9947 19.92 15.9947 18.4043V6.1667L9.98242 0.000732422H2.80493C1.26132 0.000732422 0 1.23923 0 2.75493V18.4013C0 19.917 1.26132 21.1555 2.80493 21.1555L2.80793 21.1585Z" fill="#FFB11F"/>
<path fill-rule="evenodd" clip-rule="evenodd" d="M15.9977 6.1667L9.98543 0.000732422V6.19324H15.9977V6.1667Z" fill="#FFC963"/>
<path fill-rule="evenodd" clip-rule="evenodd" d="M1.85895 1.66089H3.72089V2.59566H1.85895V1.66089Z" fill="#FEFEFE"/>
<path fill-rule="evenodd" clip-rule="evenodd" d="M3.22237 2.58972H5.08431V3.5245H3.22237V2.58972Z" fill="#FEFEFE"/>
<path fill-rule="evenodd" clip-rule="evenodd" d="M1.85895 3.52466H3.72089V4.45943H1.85895V3.52466Z" fill="#FEFEFE"/>
<path fill-rule="evenodd" clip-rule="evenodd" d="M3.22237 4.45337H5.08431V5.38814H3.22237V4.45337Z" fill="#FEFEFE"/>
<path fill-rule="evenodd" clip-rule="evenodd" d="M1.85895 5.38831H3.72089V6.32308H1.85895V5.38831Z" fill="#FEFEFE"/>
<path fill-rule="evenodd" clip-rule="evenodd" d="M3.22237 6.31714H5.08431V7.25191H3.22237V6.31714Z" fill="#FEFEFE"/>
<path fill-rule="evenodd" clip-rule="evenodd" d="M3.84401 9.65518C4.27946 9.83506 4.58578 10.2597 4.58578 10.7551C4.58578 11.4156 4.04222 11.9494 3.36951 11.9494C2.69681 11.9494 2.15324 11.4156 2.15324 10.7551C2.15324 10.2626 2.45656 9.83801 2.89202 9.65813V7.71191H3.84401V9.65518ZM3.36951 10.0621C3.75992 10.0621 4.07525 10.3717 4.07525 10.7551C4.07525 11.1384 3.75992 11.4481 3.36951 11.4481C2.97911 11.4481 2.66378 11.1384 2.66378 10.7551C2.66378 10.3717 2.97911 10.0621 3.36951 10.0621Z" fill="#FEFEFE"/>
<path d="M6.91622 12.8841V13.6626L5.22545 17.6494H6.91622V18.4426H4.3125V17.6641L6.00326 13.6773H4.39358V12.8841H6.91622ZM7.44177 12.8841H8.33069V18.4426H7.44177V12.8841ZM10.2887 12.8841C10.7362 12.8841 11.0696 12.9991 11.2888 13.232C11.508 13.465 11.6161 13.8071 11.6161 14.2553V14.9777C11.6161 15.4289 11.508 15.768 11.2888 16.001C11.0696 16.2339 10.7362 16.3489 10.2887 16.3489H9.8683V18.4367H8.97937V12.8782H10.2887V12.8841ZM9.8683 13.6773V15.5586H10.2887C10.4299 15.5586 10.538 15.5203 10.6131 15.4466C10.6882 15.3729 10.7272 15.2343 10.7272 15.0338V14.1992C10.7272 13.9987 10.6882 13.8601 10.6131 13.7864C10.538 13.7127 10.4299 13.6744 10.2887 13.6744H9.8683V13.6773Z" fill="#FEFEFE"/>
</svg>
