<svg width="10" height="13" viewBox="0 0 10 13" fill="none" xmlns="http://www.w3.org/2000/svg">
<path fill-rule="evenodd" clip-rule="evenodd" d="M4.17072 7.07318C4.06381 7.00162 2.88757 5.80224 2.68896 5.60371C2.46113 5.37588 2.37911 5.19513 2.02431 5.19513C1.76702 5.19513 1.5616 5.47533 1.3353 5.70127C1.22005 5.81628 1.13331 5.87938 1.0929 6.07057C1.0574 6.23841 1.11774 6.40096 1.22493 6.50674L4.5548 9.83545C4.77065 10.0516 4.78997 10.0732 5.04874 10.0732C5.28509 10.0732 5.48315 9.8217 5.61582 9.68909L8.54264 6.76223C8.67812 6.62674 8.9268 6.41822 8.9268 6.17079C8.9268 5.88403 8.71764 5.75428 8.56707 5.60371C8.28194 5.31858 8.25048 5.19513 7.90242 5.19513C7.65181 5.19513 7.46168 5.45296 7.32313 5.59151C7.12718 5.78752 5.95938 6.97798 5.85366 7.04883C5.85366 6.623 5.88383 0.750587 5.84087 0.476209C5.8165 0.320641 5.78746 0.241971 5.70257 0.151096C5.61703 0.0596369 5.49681 0.0176635 5.35463 0H4.63416C4.38631 0 4.18067 0.218669 4.16999 0.462654C4.15666 0.766035 4.17076 1.107 4.17076 1.41465V7.0732L4.17072 7.07318Z" fill="#404952"/>
<path fill-rule="evenodd" clip-rule="evenodd" d="M0 11.2439V12.0732C0 12.1765 0.0924663 12.306 0.151096 12.3611C0.224409 12.4301 0.329262 12.4879 0.463399 12.4879H9.53658C9.79787 12.4879 10 12.24 10 12.0732V11.2684C10 11.0926 9.90057 10.9917 9.79887 10.9085C9.705 10.8317 9.50788 10.8049 9.34152 10.8049H0.658483C0.321689 10.8049 0 10.9605 0 11.2439L0 11.2439Z" fill="#404952"/>
</svg>
