<svg width="18" height="11" viewBox="0 0 18 11" fill="none" xmlns="http://www.w3.org/2000/svg">
<path fill-rule="evenodd" clip-rule="evenodd" d="M1.23047 5.50015C1.47195 5.06741 2.94059 3.73522 3.3293 3.4235L3.96448 2.92575C4.68477 2.36358 5.57551 1.89122 6.43252 1.53249C7.43136 1.11439 8.60967 0.913645 9.7139 1.05655C10.8916 1.20897 12.1189 1.6785 13.0852 2.29338C13.2539 2.40077 13.4073 2.49759 13.5704 2.60002C13.7283 2.69914 13.8595 2.7979 14.0174 2.90959C14.7735 3.44455 15.8477 4.40624 16.4128 5.07172C16.5399 5.22144 16.6699 5.32171 16.7695 5.50015C16.6936 5.63618 16.5419 5.79121 16.4268 5.90856L16.0578 6.29207C15.9819 6.37379 15.9687 6.40987 15.8825 6.49247L15.2844 7.05877C14.9374 7.39163 13.9017 8.17692 13.5702 8.40002C10.1571 10.6965 7.27685 10.4229 3.9826 8.0907C3.22564 7.5548 2.15318 6.59514 1.5872 5.92857C1.46006 5.77884 1.33006 5.67858 1.23049 5.50014L1.23047 5.50015ZM8.47265 5.53349C8.46831 5.50692 8.50137 5.37326 8.51311 5.33853C8.67648 4.85474 9.47926 4.91684 9.51879 5.47319C9.56212 6.0828 8.58213 6.20441 8.47265 5.5335V5.53349ZM7.41796 5.43348C7.41796 5.94842 7.52731 6.22293 7.86601 6.54199C8.01325 6.68068 8.08194 6.75187 8.28398 6.84568C9.07311 7.21201 10.0403 6.91253 10.4191 6.17901C10.9521 5.14683 10.1349 4.00013 9.07029 4.00013C8.13222 4.00013 7.41796 4.632 7.41796 5.43346V5.43348ZM6.36328 5.50014C6.36328 5.3606 6.40738 5.09735 6.43559 4.96872C6.54025 4.49154 6.79252 4.07618 7.14535 3.74167C7.48781 3.41696 7.92554 3.17296 8.41047 3.07453C10.3362 2.68368 11.9559 4.24638 11.5644 6.03156C11.4597 6.50873 11.2074 6.92409 10.8546 7.2586C10.6346 7.46726 10.3843 7.64169 10.0895 7.76646C9.53785 7.99989 9.0273 8.04747 8.43951 7.93156C7.23641 7.69432 6.36328 6.63154 6.36328 5.50014ZM5.30859 5.30014C5.30859 6.23317 5.44205 6.77056 5.98315 7.52722C6.54698 8.31568 7.7316 9.00014 8.78904 9.00014C9.7731 9.00014 10.3399 8.87359 11.1379 8.36055C11.9695 7.82595 12.6914 6.70275 12.6914 5.70013C12.6914 5.03236 12.6603 4.60104 12.3399 4C11.9358 3.24176 11.4242 2.73545 10.6055 2.34451C9.19825 1.67254 7.47905 1.9922 6.38963 3.02513C5.81361 3.57127 5.30857 4.44817 5.30857 5.30013L5.30859 5.30014ZM0 5.43348C0 5.76593 0.0786752 5.77599 0.32635 6.09071C0.464954 6.26682 0.591018 6.40408 0.733044 6.57178L1.60838 7.47515C1.68362 7.5464 1.74158 7.60977 1.8196 7.67491C1.91857 7.75755 1.96651 7.77969 2.06572 7.87488L2.78618 8.49176C3.16739 8.82835 4.16974 9.46473 4.63341 9.74031C4.8279 9.8559 5.01377 9.94252 5.22689 10.0443C5.3523 10.1041 5.39643 10.1349 5.5292 10.191C6.94488 10.7888 7.59097 11.0002 9.31639 11.0002C10.2005 11.0002 11.4306 10.6673 12.1874 10.3224C12.6142 10.1278 12.9476 9.98932 13.3665 9.74031C13.7461 9.51469 14.1049 9.29617 14.4594 9.04321C15.5326 8.27749 15.8809 7.92092 16.8135 7.04187C17.0766 6.79383 17.9999 5.80824 17.9999 5.56684C17.9999 5.10176 17.3694 4.57131 17.0611 4.22364C16.855 3.99122 15.9389 3.09573 15.7148 2.9335C15.3819 2.69242 14.9793 2.3276 14.4592 1.95734C13.0665 0.965922 11.0501 0.000183105 9.3164 0.000183105C7.99005 0.000183105 6.92319 0.16593 5.83593 0.666842C4.21896 1.41181 3.98816 1.61147 2.56116 2.69522L1.18581 3.95784C0.905973 4.23351 0 5.23553 0 5.43352L0 5.43348Z" fill="#404952"/>
</svg>
