<svg width="28" height="24" viewBox="0 0 28 24" fill="none" xmlns="http://www.w3.org/2000/svg">
<path d="M20.9513 0C21.8196 0 22.6055 0.352093 23.1746 0.92111C23.7436 1.49013 24.0957 2.27637 24.0957 3.14436C24.0957 4.01266 23.7436 4.7986 23.1746 5.36762C22.6055 5.93664 21.8193 6.28873 20.9513 6.28873C20.083 6.28873 19.2971 5.93664 18.7281 5.36762C18.159 4.7986 17.8069 4.01236 17.8069 3.14436C17.8069 2.27607 18.159 1.49013 18.7281 0.92111C19.2971 0.352093 20.0833 0 20.9513 0V0ZM21.8518 2.24384C21.6215 2.01349 21.3031 1.87086 20.9513 1.87086C20.5995 1.87086 20.2811 2.01349 20.0508 2.24384C19.8204 2.4742 19.6778 2.79257 19.6778 3.14436C19.6778 3.49616 19.8204 3.81453 20.0508 4.04489C20.2811 4.27524 20.5995 4.41787 20.9513 4.41787C21.3031 4.41787 21.6215 4.27524 21.8518 4.04489C22.0822 3.81453 22.2248 3.49616 22.2248 3.14436C22.2248 2.79257 22.0822 2.4742 21.8518 2.24384Z" fill="#717579"/>
<path d="M18.2551 2.34857H0.909473C0.407185 2.34857 0 2.75576 0 3.25804C0 3.76033 0.407185 4.16752 0.909473 4.16752H18.2551C18.7574 4.16752 19.1646 3.76033 19.1646 3.25804C19.1646 2.75576 18.7574 2.34857 18.2551 2.34857Z" fill="#717579"/>
<path d="M27.7532 2.34857H23.0495C22.9132 2.34857 22.8027 2.75576 22.8027 3.25804C22.8027 3.76033 22.9132 4.16752 23.0495 4.16752H27.7532C27.8895 4.16752 28 3.76033 28 3.25804C28 2.75576 27.8895 2.34857 27.7532 2.34857Z" fill="#717579"/>
<path d="M20.9513 16.7125C21.8196 16.7125 22.6055 17.0646 23.1746 17.6336C23.7436 18.2026 24.0957 18.9888 24.0957 19.8568C24.0957 20.7251 23.7436 21.5111 23.1746 22.0801C22.6055 22.6491 21.8193 23.0012 20.9513 23.0012C20.083 23.0012 19.2971 22.6491 18.7281 22.0801C18.159 21.5111 17.8069 20.7248 17.8069 19.8568C17.8069 18.9885 18.159 18.2026 18.7281 17.6336C19.2971 17.0646 20.0833 16.7125 20.9513 16.7125ZM21.8518 18.9563C21.6215 18.726 21.3031 18.5833 20.9513 18.5833C20.5995 18.5833 20.2811 18.726 20.0508 18.9563C19.8204 19.1867 19.6778 19.505 19.6778 19.8568C19.6778 20.2086 19.8204 20.527 20.0508 20.7573C20.2811 20.9877 20.5995 21.1303 20.9513 21.1303C21.3031 21.1303 21.6215 20.9877 21.8518 20.7573C22.0822 20.527 22.2248 20.2086 22.2248 19.8568C22.2248 19.505 22.0822 19.1867 21.8518 18.9563Z" fill="#717579"/>
<path d="M18.2551 19.0607H0.909473C0.407185 19.0607 0 19.4679 0 19.9702C0 20.4725 0.407185 20.8797 0.909473 20.8797H18.2551C18.7574 20.8797 19.1646 20.4725 19.1646 19.9702C19.1646 19.4679 18.7574 19.0607 18.2551 19.0607Z" fill="#717579"/>
<path d="M27.7532 19.0607H23.0495C22.9132 19.0607 22.8027 19.4679 22.8027 19.9702C22.8027 20.4725 22.9132 20.8797 23.0495 20.8797H27.7532C27.8895 20.8797 28 20.4725 28 19.9702C28 19.4679 27.8895 19.0607 27.7532 19.0607Z" fill="#717579"/>
<path d="M7.04897 10.6577C6.69717 10.6577 6.3788 10.8003 6.14845 11.0306C5.91809 11.261 5.77547 11.5794 5.77547 11.9312C5.77547 12.283 5.91809 12.6013 6.14845 12.8317C6.3788 13.062 6.69717 13.2047 7.04897 13.2047C7.40076 13.2047 7.71914 13.062 7.94949 12.8317C8.17984 12.6013 8.32247 12.283 8.32247 11.9312C8.32247 11.5794 8.17984 11.261 7.94949 11.0306C7.71914 10.8003 7.40076 10.6577 7.04897 10.6577ZM4.82571 9.70761C5.39473 9.13859 6.18097 8.7865 7.04897 8.7865C7.91726 8.7865 8.70321 9.13859 9.27222 9.70761C9.84124 10.2766 10.1933 11.0629 10.1933 11.9309C10.1933 12.7992 9.84124 13.5851 9.27222 14.1541C8.70321 14.7231 7.91696 15.0752 7.04897 15.0752C6.18067 15.0752 5.39473 14.7231 4.82571 14.1541C4.25669 13.5851 3.9046 12.7989 3.9046 11.9309C3.9046 11.0626 4.25669 10.2766 4.82571 9.70761Z" fill="#717579"/>
<path d="M27.0905 11.1351H9.74492C9.24263 11.1351 8.83545 11.5423 8.83545 12.0445C8.83545 12.5468 9.24263 12.954 9.74492 12.954H27.0905C27.5928 12.954 28 12.5468 28 12.0445C28 11.5423 27.5928 11.1351 27.0905 11.1351Z" fill="#717579"/>
<path d="M4.95072 11.1351H0.247007C0.110724 11.1351 0.000244141 11.5423 0.000244141 12.0445C0.000244141 12.5468 0.110724 12.954 0.247007 12.954H4.95072C5.08701 12.954 5.19749 12.5468 5.19749 12.0445C5.19749 11.5423 5.08701 11.1351 4.95072 11.1351Z" fill="#717579"/>
</svg>
