<svg width="21" height="21" viewBox="0 0 21 21" fill="none" xmlns="http://www.w3.org/2000/svg">
<path fill-rule="evenodd" clip-rule="evenodd" d="M0 1.67467V19.3255C0 20.1604 0.839657 21.0001 1.67458 21.0001H12.084C12.919 21.0001 13.7586 20.1604 13.7586 19.3255V17.6509C13.7586 17.0969 13.2829 16.6553 12.5819 16.6553C12.084 16.6553 11.5862 17.1531 11.5862 17.6509V18.8277H2.1724V2.17252H11.5862V3.34925C11.5862 3.90326 12.0619 4.34494 12.7629 4.34494C13.2608 4.34494 13.7586 3.84714 13.7586 3.34925V1.6747C13.7586 0.839779 12.9189 0.00012207 12.084 0.00012207H1.67458C0.839657 0.00012207 0 0.839779 0 1.6747L0 1.67467Z" fill="#404952"/>
<path fill-rule="evenodd" clip-rule="evenodd" d="M14.7091 6.3815C14.7091 7.02296 15.3354 7.48301 15.8519 7.99948L17.2436 9.4138C16.6185 9.4138 5.46583 9.3533 5.14027 9.43979C4.10713 9.71431 4.0556 11.2185 5.10566 11.5496C5.39576 11.641 9.75365 11.5862 10.2737 11.5862C12.597 11.5862 14.9203 11.5862 17.2436 11.5862L15.1956 13.6568C14.0962 14.7496 15.1135 15.7048 15.7953 15.7048C16.4266 15.7048 16.8407 15.1346 17.3228 14.6525L19.9025 12.0727C20.4613 11.5139 21 11.1992 21 10.4095C21 9.85878 20.2446 9.26942 19.9251 8.94991C19.5168 8.54155 16.6626 5.61581 16.3664 5.44829C15.5722 4.99908 14.7091 5.64314 14.7091 6.3815Z" fill="#404952"/>
</svg>
