<svg width="106" height="106" viewBox="0 0 106 106" fill="none" xmlns="http://www.w3.org/2000/svg">
<path fill-rule="evenodd" clip-rule="evenodd" d="M6.21094 71.8399V34.1603C6.21094 17.9065 17.9064 6.21102 34.1602 6.21102H71.8398C88.0935 6.21102 99.789 17.9065 99.789 34.1603V71.8399C99.789 88.0737 88.0736 99.7891 71.8398 99.7891H34.1602C17.9263 99.7891 6.21094 88.0737 6.21094 71.8399ZM0 31.6758V74.3242C0 85.6915 7.40396 96.6561 17.5292 102.135C18.1541 102.473 18.2471 102.606 18.8662 102.868C20.7946 103.685 22.5114 104.402 24.635 104.966C26.5925 105.487 29.2261 106 31.6757 106H74.3242C77.7388 106 82.52 104.871 85.5663 103.578L89.5765 101.584C91.8102 100.405 94.5411 98.1013 96.3213 96.3212C100.559 92.0835 103.422 87.1669 104.967 81.3649C105.487 79.4101 106 76.771 106 74.3242V31.6758C106 29.2678 105.494 26.6671 105.009 24.7992C103.479 18.8987 100.652 14.0096 96.3213 9.6787C93.9888 7.34629 90.2775 4.40288 87.1313 3.13431C86.5582 2.90315 86.3943 2.80895 85.85 2.55237L81.3638 1.03461C79.3163 0.524418 76.8639 0 74.3243 0H31.6759C28.7224 0 24.336 0.92976 21.7671 1.89193C18.7676 3.01539 16.6709 4.20654 14.0341 5.95973C11.5084 7.63901 7.74658 11.3868 6.04142 13.9086L3.84581 17.5098C1.65114 21.158 7.77262e-05 27.4496 7.77262e-05 31.6758H0Z" fill="#404952"/>
<path fill-rule="evenodd" clip-rule="evenodd" d="M39.5429 79.4998C42.4216 79.4998 44.553 73.9099 52.9999 73.9099C57.353 73.9099 60.2794 75.4424 63.2347 77.7532C63.9711 78.3291 65.1134 79.4998 66.25 79.4998C68.3272 79.4998 69.8272 77.5899 69.3582 75.5811C68.5561 72.1455 59.7661 67.699 54.4493 67.699C48.9766 67.699 44.8631 68.3108 40.4567 71.5111C38.4054 73.0008 35.2595 75.1172 37.0521 78.0564C37.4211 78.6614 38.6852 79.4997 39.543 79.4997L39.5429 79.4998Z" fill="#404952"/>
<path fill-rule="evenodd" clip-rule="evenodd" d="M59.8321 49.6872C59.8321 53.2933 67.8271 56.9333 72.2539 56.9333C76.4945 56.9333 77.7815 56.5462 81.2968 54.7964C90.2587 50.3355 84.6276 44.1564 80.5033 47.585C78.3281 49.3933 76.683 50.5527 73.0561 50.6364C67.3413 50.7682 65.2361 46.5818 63.3516 46.5818C61.4609 46.5818 59.8321 47.3752 59.8321 49.6872Z" fill="#404952"/>
<path fill-rule="evenodd" clip-rule="evenodd" d="M19.875 49.6873C19.875 53.151 27.7482 56.9334 32.2969 56.9334C37.8495 56.9334 40.4619 55.7498 44.3067 52.7947C47.2272 50.55 46.7332 46.5818 42.6484 46.5818C40.6481 46.5818 35.9686 53.7886 27.5996 49.2089C25.1231 47.8537 25.6417 46.5818 22.5665 46.5818C21.0943 46.5818 19.875 48.3079 19.875 49.6872L19.875 49.6873Z" fill="#404952"/>
</svg>
