<svg width="15" height="16" viewBox="0 0 15 16" fill="none" xmlns="http://www.w3.org/2000/svg">
<path fill-rule="evenodd" clip-rule="evenodd" d="M5.65227 1.68991C8.37899 1.283 10.5201 3.3164 10.8576 5.62487C11.2541 8.33729 9.24369 10.5276 6.94037 10.8548C4.20797 11.2429 2.02615 9.2705 1.68882 6.96593C1.27396 4.13171 3.28899 2.04259 5.65229 1.68991H5.65227ZM9.86275 11.4333L12.648 14.3276C12.84 14.5355 13.0391 14.6831 13.2327 14.8945C13.5002 15.1868 14.0519 15.8989 14.7048 15.3391C15.3412 14.7935 14.7976 14.1678 14.4813 13.8277L11.0858 10.3319C11.3081 9.78915 12.711 8.52727 12.5238 5.82213C12.3503 3.31615 10.8584 1.51952 8.82264 0.550488C7.32351 -0.163105 5.43178 -0.173801 3.89744 0.465326C-0.189234 2.16765 -1.13383 7.27444 1.40404 10.2165C3.26894 12.3785 6.2801 13.2303 8.89931 11.9605C9.21826 11.8058 9.62886 11.5231 9.86275 11.4333V11.4333Z" fill="#717579"/>
</svg>
