<svg width="36" height="36" viewBox="0 0 36 36" fill="none" xmlns="http://www.w3.org/2000/svg">
<path fill-rule="evenodd" clip-rule="evenodd" d="M28.4259 28.9751C27.7089 29.363 27.0757 30.4529 23.9202 31.9182C18.6383 34.3712 12.4184 33.3092 7.94038 29.845C7.46611 29.4781 7.42255 29.2685 6.88006 28.9748C7.16665 26.7525 9.45058 24.4354 10.6372 23.4633C14.5508 20.2572 20.6294 20.2476 24.5928 23.4017C25.7866 24.3516 28.1365 26.7273 28.4261 28.9748L28.4259 28.9751ZM16.4487 8.79289C19.6192 7.99121 22.0519 10.1332 22.6574 12.5032C23.4838 15.7389 21.3048 18.1916 18.9406 18.7952C12.3151 20.4876 9.69716 10.5001 16.4489 8.79261L16.4487 8.79289ZM13.3406 19.6029C13.0581 19.83 11.3022 20.5736 10.7936 20.8594C9.87881 21.3731 9.2418 21.9266 8.5615 22.4921C7.63927 23.2584 6.61512 24.616 5.99783 25.7215L5.47343 26.7117C5.45233 26.7454 5.38329 26.8413 5.36356 26.8679C5.35014 26.8857 5.31397 26.9238 5.30301 26.9377C5.29178 26.9517 5.26356 26.9849 5.24054 27.0051C3.71116 25.2897 2.45741 22.12 2.15384 19.2155C1.24202 10.4899 8.04559 2.07015 17.6531 2.07015C27.1938 2.07015 33.9938 10.3675 33.1647 19.0969C32.8852 22.0403 31.6076 25.2758 30.0657 27.0051L28.6166 24.6163C25.7104 20.6227 22.9363 20.3838 21.9653 19.6026C27.5151 15.4386 24.6145 6.55718 17.6531 6.55718C14.2984 6.55718 11.7537 8.80056 10.8654 11.2785C9.56565 14.9044 11.2928 18.0661 13.3409 19.6026L13.3406 19.6029ZM0.0792355 19.3073C0.924475 28.4682 9.02481 36.154 19.26 35.2285C28.4541 34.3972 36.1561 26.2994 35.2292 16.045C34.3979 6.85089 26.3 -0.85107 16.0456 0.075817C6.83595 0.908454 -0.86957 9.02632 0.0792355 19.307V19.3073Z" fill="#4A5A69"/>
</svg>
